<svg id="rundg_" xmlns="http://www.w3.org/2000/svg" viewBox="0 0 14 19">
	<title>rechner</title>
	<g id="rechner" fill="white">
		<path id="papier" d="M682.51-58a6.32,6.32,0,0,1-1.23,5H674a6.19,6.19,0,0,0,1.39-5h1.15a8.32,8.32,0,0,1-.56,4h4.73a6.11,6.11,0,0,0,.66-4h1.12Z" transform="translate(-672 72)"/>
		<path id="gerate" d="M674.37-57v-0.68a1.31,1.31,0,0,1,1.3-1.32h6.65a1.31,1.31,0,0,1,1.3,1.32V-57H686V-72H672v15h2.37ZM674-70h10v9H674v-9Z" transform="translate(-672 72)"/>
		<rect x="6" y="9" width="5" height="1"/>
		<rect x="6" y="7" width="5" height="1"/>
		<rect x="6" y="5" width="5" height="1"/>
		<rect x="6" y="3" width="5" height="1"/>
		<rect x="3" y="9" width="2" height="1"/>
		<rect x="3" y="7" width="2" height="1"/>
		<rect x="3" y="5" width="2" height="1"/>
		<rect x="3" y="3" width="2" height="1"/>
	</g>
</svg>